<svg width="48" height="48" viewBox="0 0 48 48" fill="none" xmlns="http://www.w3.org/2000/svg">
<rect x="0.5" y="0.5" width="47" height="47" rx="23.5" stroke="#161616" stroke-opacity="0.16"/>
<path d="M23.2356 28.5204H25.2428H28.4661C28.6241 28.5249 28.7791 28.4772 28.9072 28.3845C29.0352 28.2919 29.129 28.1596 29.1741 28.0081L29.5614 26.5153L29.6864 26.0306C29.7177 25.9245 29.7227 25.8123 29.701 25.7037C29.6792 25.5952 29.6313 25.4936 29.5614 25.4077C29.4939 25.322 29.4081 25.2526 29.3102 25.2046C29.2123 25.1565 29.1049 25.131 28.9958 25.13H25.3637C25.3637 25.13 24.7653 25.1239 24.5768 25.13C24.4319 25.1322 24.2884 25.1025 24.1563 25.043C24.0242 24.9835 23.9068 24.8957 23.8124 24.7858C23.694 24.6465 23.6131 24.4793 23.5772 24.3C23.5414 24.1208 23.5518 23.9353 23.6075 23.7612L23.8124 22.9692L24.754 19.3401C24.9856 18.4477 25.7786 18.4477 25.7786 18.4477H27.0993H32.2059H32.9282C33.1762 18.4477 33.4733 18.4323 33.7633 18.7151C33.8799 18.83 33.9647 18.9732 34.0096 19.1306C34.0545 19.2881 34.0579 19.4545 34.0194 19.6136C33.9221 19.9569 33.5983 20.4794 32.9251 20.4794H27.5153C27.4123 20.4798 27.3117 20.5109 27.2264 20.5686C27.1255 20.6379 27.0528 20.7412 27.0214 20.8595C26.8165 21.6597 26.7069 22.0593 26.6116 22.461C26.5952 22.5327 26.5948 22.6073 26.6106 22.6792C26.6264 22.7511 26.6579 22.8186 26.7028 22.877C26.751 22.9401 26.8129 22.9914 26.884 23.0269C26.955 23.0625 27.0332 23.0813 27.1126 23.0819C27.2428 23.0819 27.9016 23.0819 28.0891 23.0819L30.4538 23.088H31.795C31.9499 23.0881 32.1027 23.1232 32.242 23.1909C32.3813 23.2585 32.5035 23.3568 32.5993 23.4784C32.696 23.6043 32.7631 23.7504 32.7957 23.9057C32.8284 24.0611 32.8257 24.2218 32.7878 24.3759C32.7335 24.588 32.5911 25.1229 32.5911 25.1229L31.711 28.5132C31.711 28.5132 31.4753 29.4138 31.3811 29.7817C31.3256 30.0031 31.1978 30.1996 31.018 30.3401C30.8381 30.4806 30.6165 30.5571 30.3883 30.5573C30.3298 30.5573 30.3247 30.5573 30.1526 30.5573H23.0614C22.9193 30.5554 22.7793 30.5225 22.6511 30.4609C22.523 30.3993 22.4099 30.3105 22.3196 30.2007C22.2216 30.0746 22.1564 29.9261 22.13 29.7685C22.1035 29.611 22.1166 29.4493 22.168 29.2981C22.2427 29.0734 22.3858 28.8776 22.5772 28.7382C22.7686 28.5987 22.9988 28.5226 23.2356 28.5204Z" fill="url(#paint0_linear_647_2826)"/>
<path d="M18.8863 15.3566C18.6711 15.1608 18.3913 15.0514 18.1004 15.0492H15.7869C15.6389 15.0509 15.4923 15.0206 15.3572 14.9603C15.2221 14.9 15.1016 14.8111 15.0041 14.6998C14.8415 14.512 14.7501 14.273 14.7459 14.0246C14.747 13.8698 14.7827 13.7172 14.8504 13.5781C14.9181 13.4389 15.0162 13.3166 15.1373 13.2203C15.3183 13.0805 15.5398 13.0032 15.7684 13H22.7664H37.9898C38.3802 13.0054 38.7586 13.1365 39.0686 13.374C39.3304 13.5739 39.5262 13.8476 39.6311 14.1598C39.6999 14.3613 39.7346 14.5729 39.7336 14.7859C39.7254 15.1485 39.6027 15.4992 39.3832 15.7879C39.1477 16.0988 38.8153 16.3223 38.4385 16.4232C38.0844 16.5139 37.711 16.4935 37.3689 16.3648C36.9846 16.2175 36.6653 15.9382 36.4682 15.5768C36.3648 15.4138 36.2216 15.2798 36.052 15.1874C35.8824 15.0951 35.6921 15.0475 35.499 15.0492H23.1209C22.9397 15.0493 22.7612 15.0925 22.6 15.1751C22.4388 15.2578 22.2995 15.3776 22.1936 15.5246C22.1113 15.6405 22.0505 15.7703 22.0143 15.9078C21.9795 16.0451 21.8637 16.4877 21.8637 16.4877L17.8473 31.9641C17.8473 31.9641 17.8053 32.1342 17.7141 32.4764C17.6788 32.6253 17.6647 32.7785 17.6721 32.9314C17.6909 33.1054 17.7494 33.2728 17.8432 33.4207C17.937 33.5685 18.0636 33.6927 18.2131 33.7838C18.3978 33.8971 18.6113 33.9547 18.8279 33.9498H20.7582C20.9182 33.9464 21.0767 33.9816 21.2203 34.0523C21.3779 34.1302 21.5128 34.2474 21.6121 34.3925C21.7113 34.5377 21.7715 34.706 21.7869 34.8811C21.8014 35.0491 21.7743 35.218 21.708 35.373C21.6279 35.5559 21.497 35.712 21.3309 35.8227C21.1832 35.9345 21.0039 35.9966 20.8186 36H12.0061C11.7344 36 11.4738 35.8921 11.2817 35.6999C11.0895 35.5078 10.9816 35.2471 10.9816 34.9754C10.9816 34.7037 11.0895 34.4431 11.2817 34.2509C11.4738 34.0588 11.7344 33.9508 12.0061 33.9508H13.7807C14.0261 33.9495 14.2646 33.8703 14.4621 33.7247C14.6595 33.579 14.8055 33.3744 14.8791 33.1404L15.2008 31.9016C15.2418 31.7268 15.2418 31.5448 15.2008 31.3699C15.1524 31.1961 15.0679 31.0345 14.9529 30.8955C14.8458 30.7728 14.7136 30.6745 14.5653 30.6072C14.4171 30.5398 14.2561 30.505 14.0932 30.5051H10.2541C10.1101 30.5048 9.96783 30.4742 9.83648 30.4153C9.70513 30.3563 9.58769 30.2703 9.4918 30.1629C9.36283 30.0153 9.27889 29.8338 9.24994 29.64C9.221 29.4461 9.24827 29.248 9.32851 29.0692C9.40876 28.8904 9.53861 28.7383 9.70267 28.6311C9.86673 28.5238 10.0581 28.4659 10.2541 28.4641H15.2336C15.4675 28.4557 15.6939 28.3795 15.8852 28.2449C16.0924 28.0962 16.243 27.8816 16.3125 27.6363C16.3914 27.3412 16.4477 27.1014 16.5041 26.8863C16.5688 26.6526 16.5548 26.4042 16.4641 26.1793C16.4079 26.0448 16.3293 25.9207 16.2316 25.8125C16.1226 25.6996 15.9928 25.6088 15.8494 25.5451C15.7081 25.4826 15.5551 25.4512 15.4006 25.4529H14.1475C13.9105 25.4573 13.68 25.3754 13.499 25.2223C13.3827 25.1276 13.2889 25.0083 13.2244 24.8729C13.1599 24.7375 13.1263 24.5895 13.126 24.4395C13.1258 24.2107 13.2011 23.9881 13.3402 23.8064C13.4353 23.6828 13.5576 23.5829 13.6976 23.5143C13.8377 23.4457 13.9916 23.4103 14.1475 23.4109C14.9949 23.4109 15.623 23.4109 16.5154 23.4109C16.7336 23.4118 16.9474 23.3488 17.1301 23.2295C17.3709 23.0703 17.5459 22.8294 17.623 22.5512C17.6957 22.2613 17.7879 21.9365 17.8617 21.6424C17.9037 21.4766 17.908 21.3034 17.8743 21.1357C17.8406 20.968 17.7698 20.8099 17.667 20.6732C17.5562 20.5293 17.4137 20.4129 17.2505 20.3331C17.0874 20.2533 16.908 20.2123 16.7264 20.2131C16.0092 20.2131 9.69672 20.2131 9.0584 20.2131C8.81322 20.2206 8.57342 20.1403 8.38217 19.9867C8.2643 19.8901 8.16901 19.7688 8.10299 19.6315C8.03697 19.4941 8.00181 19.344 8 19.1916C8.00366 18.9337 8.10129 18.6859 8.27459 18.4949C8.36995 18.3912 8.48594 18.3087 8.61511 18.2526C8.74428 18.1965 8.88376 18.168 9.02459 18.1691H17.8494C18.0921 18.1766 18.3306 18.1046 18.5287 17.9641C18.7437 17.8165 18.9014 17.5995 18.9754 17.3494C19.0348 17.1219 19.1465 16.6967 19.2111 16.4488C19.2752 16.1935 19.2454 15.9236 19.127 15.6885C19.0655 15.5654 18.9841 15.4533 18.8863 15.3566Z" fill="url(#paint1_linear_647_2826)"/>
<defs>
<linearGradient id="paint0_linear_647_2826" x1="22.1167" y1="24.4968" x2="34.0419" y2="24.4968" gradientUnits="userSpaceOnUse">
<stop stop-color="#F1652F"/>
<stop offset="1" stop-color="#F69230"/>
</linearGradient>
<linearGradient id="paint1_linear_647_2826" x1="8" y1="24.5041" x2="39.7316" y2="24.5041" gradientUnits="userSpaceOnUse">
<stop stop-color="#224292"/>
<stop offset="1" stop-color="#61B8E7"/>
</linearGradient>
</defs>
</svg>
