<svg width="32" height="32" viewBox="0 0 32 32" fill="none" xmlns="http://www.w3.org/2000/svg">
<path d="M16 29.3333C23.3638 29.3333 29.3333 23.3638 29.3333 16C29.3333 8.63616 23.3638 2.66663 16 2.66663C8.63616 2.66663 2.66663 8.63616 2.66663 16C2.66663 23.3638 8.63616 29.3333 16 29.3333Z" stroke="#141B34" stroke-width="1.5"/>
<path d="M29.3333 17.6859C28.0976 17.4542 26.8267 17.3334 25.5296 17.3334C18.3931 17.3334 12.0458 20.99 8 26.6667" stroke="#141B34" stroke-width="1.5" stroke-linejoin="round"/>
<path d="M25.3333 6.66663C21.1606 11.5565 14.8905 14.6666 7.87945 14.6666C6.08579 14.6666 4.3406 14.463 2.66663 14.0782" stroke="#141B34" stroke-width="1.5" stroke-linejoin="round"/>
<path d="M19.4904 29.3333C19.8246 27.7147 20 26.0383 20 24.3209C20 15.8996 15.7791 8.46193 9.33337 4" stroke="#141B34" stroke-width="1.5" stroke-linejoin="round"/>
</svg>
